<!DOCTYPE svg PUBLIC "-//W3C//DTD SVG 1.1//EN" "http://www.w3.org/Graphics/SVG/1.1/DTD/svg11.dtd">
<!-- Uploaded to: SVG Repo, www.svgrepo.com, Transformed by: SVG Repo Mixer Tools -->
<svg height="800px" width="800px" version="1.1" id="Layer_1" xmlns="http://www.w3.org/2000/svg" xmlns:xlink="http://www.w3.org/1999/xlink" viewBox="0 0 512 512" xml:space="preserve" fill="#000000">
<g id="SVGRepo_bgCarrier" stroke-width="0"/>
<g id="SVGRepo_tracerCarrier" stroke-linecap="round" stroke-linejoin="round"/>
<g id="SVGRepo_iconCarrier"> <path style="fill:#FFAD61;" d="M320.824,501.801H191.176c-66.914,0-121.159-73.27-121.159-163.868l0,0h371.966l0,0 C441.984,428.531,387.738,501.801,320.824,501.801z"/> <circle style="fill:#00ff04;" cx="256" cy="419.779" r="79.409"/> <path style="fill:#FFAD61;" d="M301.304,337.933h-90.607c-77.695,0-140.68-62.984-140.68-140.68V174.24h371.966v23.013 C441.984,274.949,378.998,337.933,301.304,337.933z"/> <circle style="fill:#00ff04;" cx="256" cy="256.265" r="79.409"/> <path style="fill:#FFAD61;" d="M301.004,174.24h-90.008c-77.861,0-140.979-63.119-140.979-140.979V10.199h371.966v23.062 C441.984,111.122,378.865,174.24,301.004,174.24z"/> <circle style="fill:#00ff04;" cx="256" cy="92.221" r="79.409"/> <g> <path style="fill:#4D3D36;" d="M452.183,33.262V10.199C452.183,4.567,447.616,0,441.984,0H70.017 c-5.633,0-10.199,4.567-10.199,10.199v23.062c0,55.769,30.358,104.577,75.413,130.78H70.017c-5.633,0-10.199,4.567-10.199,10.199 v23.012c0,55.631,30.267,104.319,75.196,130.48H70.017c-5.633,0-10.199,4.567-10.199,10.199c0,45.974,13.313,89.292,37.486,121.973 C122.152,493.499,155.489,512,191.176,512h129.648c35.686,0,69.025-18.501,93.872-52.093 c24.173-32.681,37.486-75.999,37.486-121.973c0-5.632-4.567-10.199-10.199-10.199h-64.996 c44.927-26.161,75.196-74.85,75.196-130.48v-23.012c0-5.632-4.567-10.199-10.199-10.199H376.77 C421.824,137.838,452.183,89.031,452.183,33.262z M256,488.989c-38.162,0-69.209-31.046-69.209-69.209s31.047-69.209,69.209-69.209 c38.162,0,69.209,31.046,69.209,69.209S294.162,488.989,256,488.989z M256,325.47c-38.162,0-69.209-31.046-69.209-69.209 s31.047-69.209,69.209-69.209c38.162,0,69.209,31.046,69.209,69.209S294.162,325.47,256,325.47z M256,161.429 c-38.162,0-69.209-31.046-69.209-69.209S217.838,23.011,256,23.011s69.209,31.046,69.209,69.209S294.162,161.429,256,161.429z M80.216,33.262V20.398h122.258c-21.887,16.353-36.082,42.461-36.082,71.822c0,29.177,14.02,55.139,35.674,71.511 C134.104,159.125,80.216,102.372,80.216,33.262z M80.216,197.254V184.44h122.257c-21.886,16.353-36.081,42.46-36.081,71.821 c0,28.965,13.818,54.759,35.205,71.151C133.88,322.723,80.216,266.142,80.216,197.254z M80.457,348.132h121.787 c-21.756,16.365-35.852,42.39-35.852,71.647c0,29.36,14.195,55.468,36.082,71.822h-11.299 C132.468,491.602,84.263,428.127,80.457,348.132z M320.824,491.602h-11.299c21.887-16.353,36.082-42.461,36.082-71.822 c0-29.257-14.096-55.283-35.852-71.647h121.787C427.737,428.127,379.532,491.602,320.824,491.602z M431.784,197.254 c0,68.888-53.663,125.47-121.381,130.158c21.387-16.391,35.205-42.186,35.205-71.151c0-29.36-14.194-55.467-36.081-71.821h122.257 V197.254z M309.933,163.731c21.654-16.372,35.674-42.334,35.674-71.511c0-29.36-14.195-55.468-36.082-71.822h122.258v12.863 C431.784,102.372,377.897,159.125,309.933,163.731z"/> <path style="fill:#4D3D36;" d="M274.705,214.569c-3.984-3.982-10.44-3.982-14.425,0l-45.973,45.974 c-3.983,3.983-3.983,10.441,0,14.425c1.992,1.991,4.602,2.987,7.212,2.987s5.221-0.996,7.212-2.987l45.973-45.974 C278.688,225.01,278.688,218.552,274.705,214.569z"/> <path style="fill:#4D3D36;" d="M282.745,237.033l-45.973,45.974c-3.983,3.983-3.983,10.441,0,14.425 c1.992,1.991,4.602,2.987,7.212,2.987s5.221-0.996,7.212-2.987l45.973-45.974c3.983-3.983,3.983-10.441,0-14.425 C293.185,233.051,286.729,233.051,282.745,237.033z"/> <path style="fill:#4D3D36;" d="M274.705,378.611c-3.984-3.982-10.44-3.982-14.425,0l-45.973,45.973 c-3.983,3.983-3.983,10.441,0,14.425c1.992,1.991,4.602,2.987,7.212,2.987s5.221-0.996,7.212-2.987l45.973-45.973 C278.688,389.052,278.688,382.594,274.705,378.611z"/> <path style="fill:#4D3D36;" d="M282.745,401.074l-45.973,45.973c-3.983,3.983-3.983,10.441,0,14.425 c1.992,1.991,4.602,2.987,7.212,2.987s5.221-0.996,7.212-2.987l45.973-45.973c3.983-3.983,3.983-10.441,0-14.425 C293.185,397.093,286.729,397.093,282.745,401.074z"/> <path style="fill:#4D3D36;" d="M265.179,69.208c2.611,0,5.22-0.996,7.212-2.987l2.314-2.314c3.983-3.983,3.983-10.441,0-14.425 c-3.984-3.982-10.44-3.982-14.425,0l-2.314,2.314c-3.983,3.983-3.983,10.441,0,14.425 C259.959,68.212,262.568,69.208,265.179,69.208z"/> <path style="fill:#4D3D36;" d="M250.973,73.215c-3.983-3.982-10.441-3.982-14.425,0l-22.241,22.241 c-3.983,3.983-3.983,10.441,0,14.425c1.992,1.991,4.602,2.987,7.212,2.987c2.61,0,5.221-0.996,7.212-2.987l22.241-22.241 C254.957,83.656,254.957,77.198,250.973,73.215z"/> <path style="fill:#4D3D36;" d="M282.745,71.947l-45.973,45.973c-3.983,3.983-3.983,10.441,0,14.425 c1.992,1.991,4.602,2.987,7.212,2.987s5.221-0.996,7.212-2.987l45.973-45.973c3.983-3.983,3.983-10.441,0-14.425 C293.185,67.965,286.729,67.965,282.745,71.947z"/> </g> </g>
</svg>